<?xml version="1.0" encoding="iso-8859-1"?>
<!-- Generator: Adobe Illustrator 19.0.0, SVG Export Plug-In . SVG Version: 6.00 Build 0)  -->
<svg version="1.1" id="Capa_1" xmlns="http://www.w3.org/2000/svg" xmlns:xlink="http://www.w3.org/1999/xlink" x="0px" y="0px"
	 viewBox="0 0 384.342 384.342" style="enable-background:new 0 0 384.342 384.342;" xml:space="preserve">
<g id="XMLID_1344_">
	<g id="XMLID_1345_">
		<rect id="XMLID_77_" x="62.275" y="30.458" style="fill:#F9E375;" width="259.792" height="305.375"/>
		<rect id="XMLID_1346_" x="192.171" y="30.458" style="fill:#F5D361;" width="129.896" height="305.375"/>
	</g>
	<g id="XMLID_1348_">
		<rect id="XMLID_72_" x="98.108" y="66.292" style="fill:#DEDFE8;" width="188.125" height="233.708"/>
		<rect id="XMLID_1352_" x="192.171" y="66.292" style="fill:#C9C7D7;" width="94.063" height="233.708"/>
	</g>
	<polygon id="XMLID_1355_" style="fill:#6DA8D6;" points="241.442,30 241.442,0 142.9,0 142.9,30 127.171,30 127.171,80 257.171,80 
		257.171,30 	"/>
	<path id="XMLID_61_" style="fill:#6DA8D6;" d="M177.477,306.151c6.086,0,11.02,4.934,11.02,11.02h44.081
		c0-14.816-12.122-26.938-26.938-26.938h-26.938c-14.816,0-26.938,12.122-26.938,26.938h14.694
		C166.457,311.085,171.391,306.151,177.477,306.151z"/>
	<path id="XMLID_1362_" style="fill:#6DA8D6;" d="M317.067,265.743h-7.347V250l0,0l0,0l-0.221,0l-103.98,0.221h0l0,0l0,0
		l-9.97,9.979l-9.904-9.904l-21.182,0.036c-1.068,0.106-2.128,0.237-3.181,0.393c-0.352,0.052-0.698,0.122-1.048,0.18
		c-0.696,0.114-1.395,0.224-2.083,0.359c-0.424,0.083-0.841,0.187-1.262,0.278c-0.608,0.132-1.218,0.256-1.82,0.404
		c-0.446,0.11-0.883,0.239-1.326,0.358c-0.568,0.152-1.138,0.296-1.7,0.463c-0.455,0.135-0.901,0.29-1.352,0.434
		c-0.54,0.172-1.083,0.337-1.616,0.523c-0.459,0.16-0.91,0.339-1.365,0.509c-0.514,0.192-1.031,0.376-1.539,0.58
		c-0.462,0.186-0.914,0.389-1.371,0.584c-0.49,0.209-0.984,0.412-1.469,0.633c-0.458,0.209-0.906,0.436-1.358,0.654
		c-0.471,0.228-0.946,0.449-1.411,0.688c-0.453,0.232-0.896,0.481-1.343,0.724c-0.452,0.245-0.909,0.484-1.355,0.739
		c-0.447,0.255-0.883,0.527-1.323,0.793c-0.433,0.261-0.87,0.516-1.297,0.787c-0.44,0.279-0.869,0.574-1.302,0.863
		c-0.414,0.276-0.832,0.546-1.239,0.832c-0.431,0.301-0.85,0.617-1.273,0.928c-0.396,0.292-0.796,0.577-1.185,0.877
		c-0.421,0.324-0.83,0.662-1.243,0.996c-0.376,0.304-0.757,0.603-1.126,0.915c-0.411,0.347-0.809,0.707-1.211,1.063
		c-0.357,0.316-0.718,0.628-1.069,0.953c-0.399,0.369-0.785,0.75-1.175,1.128c-0.338,0.328-0.679,0.651-1.01,0.985
		c-0.386,0.391-0.759,0.792-1.135,1.192c-0.319,0.338-0.641,0.673-0.953,1.018c-0.371,0.411-0.73,0.833-1.092,1.254
		c-0.3,0.349-0.603,0.694-0.896,1.049c-0.356,0.432-0.699,0.874-1.044,1.314c-0.281,0.358-0.565,0.713-0.838,1.078
		c-0.339,0.45-0.665,0.911-0.992,1.37c-0.263,0.369-0.529,0.734-0.784,1.108c-0.32,0.469-0.628,0.947-0.936,1.425
		c-0.244,0.377-0.491,0.752-0.727,1.134c-0.302,0.487-0.59,0.983-0.879,1.479c-0.225,0.386-0.453,0.769-0.67,1.159
		c-0.281,0.504-0.548,1.016-0.816,1.527c-0.207,0.395-0.416,0.788-0.615,1.187c-0.259,0.52-0.505,1.047-0.751,1.575
		c-0.187,0.402-0.377,0.802-0.557,1.208c-0.03,0.067-0.062,0.132-0.092,0.199H94.213c-14.816,0-26.938,12.123-26.938,26.938
		s12.122,26.938,26.938,26.938h15.466c10.528,23.845,34.555,40.476,62.112,40.229c31.191-0.278,57.305-21.815,64.557-50.824
		c2.408-9.632,11.13-16.344,21.058-16.344h52.313l0,0l0,0v-14.694h7.347V265.743z M92.989,328.191
		c-6.086,0-11.02-4.934-11.02-11.021s4.934-11.02,11.02-11.02s11.02,4.934,11.02,11.02S99.075,328.191,92.989,328.191z"/>
	<path id="XMLID_1367_" style="fill:#2974A8;" d="M309.72,265.743V250l-0.221,0l-103.98,0.221h0l-9.97,9.979l-3.378-3.378v124.161
		c21.737-7.146,38.58-25.076,44.178-47.47c2.408-9.632,11.13-16.344,21.058-16.344h52.313v-14.694h7.347v-36.734H309.72z"/>
	<circle id="XMLID_49_" style="fill:#C1E8E6;" cx="170.13" cy="316.734" r="36.734"/>
	<path id="XMLID_1370_" style="fill:#8EC8F0;" d="M192.171,287.346v58.776c8.922-6.702,14.694-17.371,14.694-29.388
		S201.092,294.048,192.171,287.346z"/>
	<polygon id="XMLID_1373_" style="fill:#2974A8;" points="241.442,30 241.442,0 192.171,0 192.171,80 257.171,80 257.171,30 	"/>
	<polygon id="XMLID_1376_" style="fill:#6DA8D6;" points="241.442,122.171 142.9,122.171 127.171,122.171 127.171,152.171 
		257.171,152.171 257.171,122.171 	"/>
	<polygon id="XMLID_1379_" style="fill:#6DA8D6;" points="241.442,182.171 142.9,182.171 127.171,182.171 127.171,212.171 
		257.171,212.171 257.171,182.171 	"/>
	<polygon id="XMLID_1382_" style="fill:#2974A8;" points="241.442,182.171 192.171,182.171 192.171,212.171 257.171,212.171 
		257.171,182.171 	"/>
	<polygon id="XMLID_1385_" style="fill:#2974A8;" points="241.442,122.171 192.171,122.171 192.171,152.171 257.171,152.171 
		257.171,122.171 	"/>
</g>
<g>
</g>
<g>
</g>
<g>
</g>
<g>
</g>
<g>
</g>
<g>
</g>
<g>
</g>
<g>
</g>
<g>
</g>
<g>
</g>
<g>
</g>
<g>
</g>
<g>
</g>
<g>
</g>
<g>
</g>
</svg>
