<?xml version="1.0" encoding="iso-8859-1"?>
<!-- Generator: Adobe Illustrator 18.1.1, SVG Export Plug-In . SVG Version: 6.00 Build 0)  -->
<svg version="1.1" id="Capa_1" xmlns="http://www.w3.org/2000/svg" xmlns:xlink="http://www.w3.org/1999/xlink" x="0px" y="0px"
	 viewBox="0 0 285.002 285.002" style="enable-background:new 0 0 285.002 285.002;" xml:space="preserve">
<g>
	<g>
		<path d="M153.962,233.402c-0.804-5.485-5.492-9.729-11.22-9.729h-54.65c-5.716,0-10.403,4.236-11.214,9.729
			c-5.789,1.819-10.038,7.175-10.038,13.576v4.008H164v-4.008C164,240.577,159.764,235.228,153.962,233.402z"/>
		<path d="M164.13,169.549c0.062-0.18,0.167-0.384,0.21-0.557l3.779-13.224c1.397-4.855-0.94-10.632-5.319-13.155l-17.194-9.939
			c-4.236-2.449-10.699-1.521-14.064,1.973l-9.556,9.89c-2.845,2.938-5.95,8.313-7.069,12.24l-3.779,13.224
			c-1.392,4.855,0.934,10.632,5.319,13.155l17.194,9.928c1.639,0.952,3.581,1.453,5.622,1.453c3.223,0,6.383-1.274,8.43-3.42
			l9.575-9.884c0.123-0.137,0.253-0.322,0.383-0.464l22.983,13.272c0.557,2.598,2.122,4.973,4.608,6.401l28.049,16.193
			c1.534,0.884,3.204,1.305,4.855,1.305c3.353,0,6.624-1.738,8.418-4.861c2.678-4.646,1.095-10.589-3.551-13.268l-28.055-16.198
			c-2.48-1.429-5.319-1.614-7.843-0.792L164.13,169.549z"/>
		<path d="M136.619,116.271c-1.788,3.1-0.724,7.058,2.375,8.845l33.659,19.439c1.014,0.588,2.127,0.866,3.229,0.866
			c2.238,0,4.416-1.163,5.615-3.241c1.788-3.104,0.724-7.057-2.375-8.851l-33.658-19.434
			C142.371,112.114,138.413,113.166,136.619,116.271z"/>
		<path d="M100.128,192.434l33.652,19.433c1.026,0.588,2.14,0.866,3.241,0.866c2.238,0,4.409-1.163,5.615-3.241
			c1.788-3.099,0.724-7.051-2.375-8.845l-33.658-19.433c-3.093-1.794-7.063-0.73-8.851,2.369
			C95.965,186.682,97.022,190.646,100.128,192.434z"/>
		<path d="M146.731,57.922c-2.425-2.097-6.036-2.097-8.461,0l-97.624,84.202c-1.423,1.231-2.245,3.019-2.245,4.911v121.776
			c0,3.582,2.9,6.477,6.481,6.477h195.236c3.581,0,6.481-2.895,6.481-6.477V147.035c0-1.893-0.822-3.68-2.245-4.911L146.731,57.922z
			 M233.644,262.33H51.358V149.998l91.143-78.618l91.143,78.618V262.33z"/>
		<path d="M280.495,124.256L150.95,12.846c-4.862-4.176-12.036-4.176-16.898,0L4.507,124.256c-5.424,4.663-6.036,12.84-1.379,18.265
			c4.67,5.418,12.858,6.036,18.271,1.379L142.501,39.756L263.604,143.9c2.443,2.097,5.449,3.136,8.437,3.136
			c3.643,0,7.268-1.534,9.834-4.515C286.531,137.096,285.919,128.919,280.495,124.256z"/>
	</g>
</g>
<g>
</g>
<g>
</g>
<g>
</g>
<g>
</g>
<g>
</g>
<g>
</g>
<g>
</g>
<g>
</g>
<g>
</g>
<g>
</g>
<g>
</g>
<g>
</g>
<g>
</g>
<g>
</g>
<g>
</g>
</svg>
