<?xml version="1.0" encoding="iso-8859-1"?>
<!-- Generator: Adobe Illustrator 19.0.0, SVG Export Plug-In . SVG Version: 6.00 Build 0)  -->
<svg version="1.1" id="Layer_1" xmlns="http://www.w3.org/2000/svg" xmlns:xlink="http://www.w3.org/1999/xlink" x="0px" y="0px"
	 viewBox="0 0 512 512" style="enable-background:new 0 0 512 512;" xml:space="preserve">
<path style="fill:#F95428;" d="M512,128.449v211.219c0,81.799-66.312,148.124-148.124,148.124
	c-67.067,0-123.715-44.573-141.937-105.714l-0.013-0.013c-16.073-24.774,5.434-61.512,18.444-83.388
	c9.493-15.964,44.634-12.679,54.12-22.404h0.013c4.832,1.719,10.016,2.644,15.435,2.644c25.569,0,46.292-20.723,46.292-46.279
	h-60.021l-43.466-37.513l43.466-81.148c22.495-2.501,45.081-3.751,67.667-3.751C413.62,110.227,463.363,116.297,512,128.449z
	 M511.987,232.639h-92.558c0,25.569,20.71,46.292,46.279,46.292C491.264,278.931,511.987,258.208,511.987,232.639z M456.369,373.156
	c0-39.037-31.652-70.689-70.688-70.689c-39.05,0-70.689,31.652-70.689,70.689c23.068-6.747,46.878-10.134,70.689-10.134
	C409.478,363.023,433.288,366.409,456.369,373.156z"/>
<g>
	<path style="fill:#E54728;" d="M309.676,278.913c-5.323-0.03-10.419-0.947-15.173-2.639h-0.013
		c-9.486,9.725-44.627,6.44-54.12,22.404c-13.01,21.876-34.517,58.614-18.444,83.388l0.013,0.013
		c0.685,2.296,1.441,4.561,2.233,6.81c4.589-2.055,9.059-4.327,13.385-6.823C274.988,360.509,302.089,323.043,309.676,278.913z"/>
	<path style="fill:#E54728;" d="M261.657,178.486c1.486,4.538,2.302,9.38,2.302,14.413h-10.022l-1.193,2.227l43.466,37.513h15.63
		V112.45c-5.214,0.444-10.425,0.95-15.63,1.528L261.657,178.486z"/>
	<path style="fill:#E54728;" d="M391.294,485.239c-8.883,1.667-18.053,2.553-27.418,2.553c-67.081,0-123.728-44.586-141.937-105.74
		c19.46-11.202,36.145-26.715,48.728-45.237v2.866C270.667,412.089,322.625,472.357,391.294,485.239z"/>
</g>
<path style="fill:#F7B239;" d="M148.098,24.208c-32.681,0-65.374,2.618-97.742,7.867C33.475,34.81,16.672,38.262,0,42.43v150.469
	c0-25.556,20.71-46.279,46.279-46.279c0.69,0,1.381,0.013,2.058,0.052c0.677,0.026,1.355,0.065,2.019,0.13
	c23.654,2.058,42.202,21.922,42.202,46.097H0v60.75C0,335.448,66.299,401.76,148.098,401.76c26.884,0,52.101-7.164,73.828-19.694
	c38.177-21.987,65.622-60.516,72.564-105.792c1.133-7.385,1.719-14.94,1.719-22.625V42.43
	C247.586,30.277,197.855,24.208,148.098,24.208z M126.307,309.189c-39.037,0-70.689-31.652-70.689-70.689h141.377
	C196.995,277.537,165.344,309.189,126.307,309.189z M155.757,192.899c0-25.556,20.723-46.279,46.292-46.279
	c25.556,0,46.279,20.723,46.279,46.279H155.757z"/>
<g>
	<path style="fill:#E09B2D;" d="M173.289,399.624c-8.193,1.394-16.607,2.136-25.191,2.136C66.299,401.76,0,335.448,0,253.649v-60.75
		h50.356v60.75C50.356,326.864,103.473,387.667,173.289,399.624z"/>
	<path style="fill:#E09B2D;" d="M50.356,32.075v114.727c-0.677-0.052-1.342-0.104-2.019-0.13c-0.69-0.039-1.368-0.052-2.058-0.052
		C20.71,146.62,0,167.343,0,192.899V42.43C16.672,38.262,33.475,34.81,50.356,32.075z"/>
</g>
<g>
</g>
<g>
</g>
<g>
</g>
<g>
</g>
<g>
</g>
<g>
</g>
<g>
</g>
<g>
</g>
<g>
</g>
<g>
</g>
<g>
</g>
<g>
</g>
<g>
</g>
<g>
</g>
<g>
</g>
</svg>
